<?xml version="1.0" standalone="no"?>
<!DOCTYPE svg PUBLIC "-//W3C//DTD SVG 1.1//EN" "http://www.w3.org/Graphics/SVG/1.1/DTD/svg11.dtd" >
<svg xmlns="http://www.w3.org/2000/svg">
<metadata>
Created by FontForge 20120731 at Tue Mar  1 22:41:30 2016
 By Ads
</metadata>
<defs>
<font id="iconfont" horiz-adv-x="1024" >
  <font-face 
    font-family="iconfont"
    font-weight="500"
    font-stretch="normal"
    units-per-em="1024"
    panose-1="2 0 6 3 0 0 0 0 0 0"
    ascent="896"
    descent="-128"
    x-height="792"
    bbox="0 -212 1344 896"
    underline-thickness="50"
    underline-position="-100"
    unicode-range="U+0078-E61B"
  />
<missing-glyph horiz-adv-x="374" 
d="M34 0v682h272v-682h-272zM68 34h204v614h-204v-614z" />
    <glyph glyph-name=".notdef" horiz-adv-x="374" 
d="M34 0v682h272v-682h-272zM68 34h204v614h-204v-614z" />
    <glyph glyph-name=".null" horiz-adv-x="0" 
 />
    <glyph glyph-name="nonmarkingreturn" horiz-adv-x="341" 
 />
    <glyph glyph-name="x" unicode="x" horiz-adv-x="1001" 
d="M281 543q-27 -1 -53 -1h-83q-18 0 -36.5 -6t-32.5 -18.5t-23 -32t-9 -45.5v-76h912v41q0 16 -0.5 30t-0.5 18q0 13 -5 29t-17 29.5t-31.5 22.5t-49.5 9h-133v-97h-438v97zM955 310v-52q0 -23 0.5 -52t0.5 -58t-10.5 -47.5t-26 -30t-33 -16t-31.5 -4.5q-14 -1 -29.5 -0.5
t-29.5 0.5h-32l-45 128h-439l-44 -128h-29h-34q-20 0 -45 1q-25 0 -41 9.5t-25.5 23t-13.5 29.5t-4 30v167h911zM163 247q-12 0 -21 -8.5t-9 -21.5t9 -21.5t21 -8.5q13 0 22 8.5t9 21.5t-9 21.5t-22 8.5zM316 123q-8 -26 -14 -48q-5 -19 -10.5 -37t-7.5 -25t-3 -15t1 -14.5
t9.5 -10.5t21.5 -4h37h67h81h80h64h36q23 0 34 12t2 38q-5 13 -9.5 30.5t-9.5 34.5q-5 19 -11 39h-368zM336 498v228q0 11 2.5 23t10 21.5t20.5 15.5t34 6h188q31 0 51.5 -14.5t20.5 -52.5v-227h-327z" />
    <glyph glyph-name="uniE600" unicode="&#xe600;" 
d="M585 -127h157v-85h-157v85zM939 -127h-43v-85h128v128h-85v-43zM939 530h85v-153h-85v153zM939 223h85v-153h-85v153zM896 812v-85h43v-43h85v128h-128zM282 812h153v-85h-153v85zM589 812h153v-85h-153v85zM85 727h43v85h-128v-128h85v43zM0 526h85v-158h-85v158z
M427 471h196l-256 -256h-282h-85v-86v-341h341h86v85v282l256 256v-196h85v341h-341v-85z" />
    <glyph glyph-name="uniE601" unicode="&#xe601;" 
d="M846 -147h-669q-46 0 -79.5 33.5t-33.5 79.5v668q0 47 33.5 80.5t79.5 33.5h669q31 0 57 -15.5t41.5 -41.5t15.5 -57v-668q0 -30 -15.5 -56.5t-41.5 -41.5t-57 -15zM930 636q0 29 -24.5 55.5t-57.5 26.5h-672q-22 0 -41.5 -13t-30 -32t-10.5 -37v-671q0 -31 25.5 -56.5
t56.5 -25.5h672q15 0 30 6t26.5 17t18.5 26.5t7 32.5v671zM536 90q-5 -5 -11.5 -6.5t-12.5 -0.5q-5 -1 -9 -0.5t-8.5 2.5t-7.5 5l-158 158q-3 3 -4.5 6t-2.5 6.5t-1 7.5t1 7t2.5 6.5t4.5 6.5t7 5t8.5 2.5t8.5 0t8 -2.5t7 -5l116 -115v295q0 8 3.5 14.5t10 10t14.5 3.5
q11 0 19.5 -8t8.5 -20v-295l115 115q4 4 9 6t10.5 2t10.5 -2t9 -6q6 -6 8 -13t0 -14t-8 -13z" />
    <glyph glyph-name="uniE602" unicode="&#xe602;" 
d="M839 672h-636l-130 -128v-576q0 -13 3.5 -23.5t10 -17t14 -11.5t15 -7t13.5 -3.5t10 -1.5h4h762q18 0 31 6.5t19 15.5t9.5 18t3.5 16l1 6v578zM528 -32l-218 222h122l2 160h188v-158h110zM182 532l18 46h638l22 -46h-678z" />
    <glyph glyph-name="uniE603" unicode="&#xe603;" horiz-adv-x="1344" 
d="M1087 396q-6 81 -36.5 154.5t-82.5 132.5t-133 94t-179 35q-122 0 -222.5 -55.5t-160 -153.5t-64.5 -219q-64 -20 -113.5 -70.5t-72.5 -108.5t-23 -113q0 -79 39.5 -149.5t106.5 -112.5t142 -42h208q7 0 11.5 4.5t4.5 11.5t-4.5 11.5t-11.5 4.5h-208q-102 0 -179 81.5
t-77 190.5q0 39 16.5 84t47 88t81.5 71.5t111 28.5h48q7 0 11.5 4.5t4.5 11.5t-4.5 11.5t-11.5 4.5h-48q-21 0 -47 -4q5 73 35 141.5t80.5 124t128.5 89t171 33.5q99 0 178 -36.5t126 -97t71.5 -132.5t24.5 -150v-48q0 -7 4.5 -11.5t11.5 -4.5t11.5 4.5t4.5 11.5v48
q29 -3 60 -16.5t60.5 -38t52.5 -56t37 -73.5t14 -88q0 -96 -78 -184t-178 -88h-240q-78 0 -111 33t-33 111v439l130 -130q5 -5 11.5 -5t11.5 5q11 11 0 22l-143 143q-7 7 -13.5 10.5t-12.5 3.5t-12.5 -3.5t-13.5 -10.5l-143 -143q-11 -11 0 -22.5t23 0.5l130 130v-439
q0 -37 6.5 -65t20 -49.5t35 -35t49.5 -20t65 -6.5h240q112 0 200 98.5t88 205.5q0 48 -15 94t-40.5 82t-58.5 64.5t-70 44.5t-73 19z" />
    <glyph glyph-name="uniE604" unicode="&#xe604;" 
d="M464 16q0 -20 14 -34t34 -14t34 14t14 34q0 13 -6.5 24t-17.5 17.5t-24 6.5q-20 0 -34 -14t-14 -34zM512 -160q-185 0 -316.5 131.5t-131.5 316.5t131.5 316.5t316.5 131.5t316.5 -131.5t131.5 -316.5t-131.5 -316.5t-316.5 -131.5zM512 672q-104 0 -192.5 -51.5
t-140 -140t-51.5 -192.5t51.5 -192.5t140 -140t192.5 -51.5t192.5 51.5t140 140t51.5 192.5t-51.5 192.5t-140 140t-192.5 51.5zM512 126q-9 0 -16 4.5t-11.5 12t-4.5 15.5v54q0 25 13 50t25.5 39.5t36.5 38.5q18 18 26.5 27t17.5 23t9 24q0 20 -7.5 38t-20.5 30.5t-31 20.5
t-37 8q-40 0 -68 -27.5t-28 -67.5q0 -13 -9.5 -22.5t-22.5 -9.5t-22.5 9.5t-9.5 22.5q0 66 47 112.5t113 46.5t113 -47t47 -114q0 -22 -12 -45.5t-24 -37t-35 -36.5q-19 -19 -28.5 -29t-19 -26t-9.5 -28v-54q0 -13 -9.5 -22.5t-22.5 -9.5z" />
    <glyph glyph-name="uniE605" unicode="&#xe605;" 
d="M818 -212h-612q-85 0 -145.5 60.5t-60.5 145.5v612q0 85 60.5 145.5t145.5 60.5h612q85 0 145.5 -60.5t60.5 -145.5v-612q0 -85 -60.5 -145.5t-145.5 -60.5zM206 766q-66 0 -113 -47t-47 -113v-612q0 -66 47 -113t113 -47h612q43 0 80 21.5t58.5 58.5t21.5 80v612
q0 66 -47 113t-113 47h-612z" />
    <glyph glyph-name="uniE606" unicode="&#xe606;" 
d="M92 296l10 5q0 83 32.5 158.5t87 130.5t130 87.5t158.5 32.5q55 0 108 -15t97.5 -41t82 -63.5t64 -82.5t41 -97.5t14.5 -108.5q0 -82 -32.5 -157.5t-87 -130t-129.5 -87t-158 -32.5q-111 0 -204.5 53.5t-148.5 147t-55 205.5h-19l-26 2q0 -74 23 -143.5t65 -125.5t98 -98
t125 -65t143 -23q93 0 177 36t145 97t97 145t36 176.5t-36 177t-97 145t-145 97t-177 36.5q-171 -1 -300 -115q-124 -110 -149 -272q-5 -35 -5 -70l18 -3l4 -1zM511 111h19v11q0 8 -6 14q-2 2 -5.5 3.5t-7.5 1.5t-7.5 -1.5t-5.5 -3.5q-2 -1 -3 -3t-1.5 -3.5t-1 -3.5t-0.5 -4
v-11q0 -8 5.5 -13.5t13.5 -5.5q4 0 7.5 1.5t5.5 3.5q6 6 6 14h-19h19v11q0 8 -6 14q-2 2 -5.5 3.5t-7.5 1.5t-7.5 -1.5t-5.5 -3.5q-2 -1 -3 -3t-1.5 -3.5t-1 -3.5t-0.5 -4v-11q0 -8 5.5 -13.5t13.5 -5.5q4 0 7.5 1.5t5.5 3.5q6 6 6 14h-19v0zM397 363q0 47 33.5 80t80.5 33
t80 -33t33 -80t-33 -80.5t-80 -33.5q-8 0 -13.5 -5.5t-5.5 -13.5q0 -5 2.5 -9.5t7 -7t9.5 -2.5q31 0 59 12t48 32.5t32 48.5t12 59q0 41 -20 76t-55 55t-76 20q-63 0 -107.5 -44.5t-44.5 -106.5q0 -2 0.5 -4.5t1.5 -4t2.5 -3.5t3 -3t3.5 -2t4 -1.5t4 -0.5q8 0 13.5 5.5
t5.5 13.5v0zM511 192h19v38h-19v-19v19l-18 -6l1 -2q0 -3 4 -6t13 -5v19l-18 -6l-1 -4v-27l19 -1h19h-19h19v1v3v4v4v6v5v5v8v3v2l-1 3l-1 2q-1 3 -5 6t-12 5q-8 0 -13 -5q-3 -3 -4.5 -6.5t-1.5 -7.5v-38q0 -7 5.5 -13t13.5 -6q3 0 6 1t5 3l4 4q2 2 3 5t1 6h-19v0z" />
    <glyph glyph-name="uniE607" unicode="&#xe607;" 
d="M955 684l-58 58q-9 9 -20.5 13.5t-23 4.5t-23 -4.5t-20.5 -13.5l-429 -428l-80 -224l225 79l15 14l7 7l338 339l7 7l62 61q12 12 16 28t0 31.5t-16 27.5zM374 162l44 115l72 -72zM526 241l-72 73l309 309l72 -73zM904 619l-32 -32l-73 72l33 33q9 9 21.5 9t21.5 -9
l29 -29q9 -9 9 -22t-9 -22zM876 351q-11 0 -18.5 -7.5t-7.5 -18.5v-403q0 -13 -9 -22t-22 -9h-686q-8 0 -15 4t-11.5 11t-4.5 16v686q0 8 4.5 15t11.5 11.5t15 4.5h404h1q11 0 18.5 7.5t7.5 17.5q0 5 -2 10t-5.5 8.5t-8 5.5t-10.5 2h-1h-424q-26 0 -44 -18t-18 -44v-727
q0 -12 5 -23.5t13 -19.5t19.5 -13t24.5 -5h727q25 0 43 18t18 43v424q0 20 -19 25q-4 1 -6 1z" />
    <glyph glyph-name="uniE608" unicode="&#xe608;" 
d="M512 -212q-104 0 -199 40.5t-163.5 109t-109 163.5t-40.5 199t40.5 199t109 163.5t163.5 109t199 40.5t199 -40.5t163.5 -109t109 -163.5t40.5 -199t-40.5 -199t-109 -163.5t-163.5 -109t-199 -40.5zM512 779q-179 0 -314 -117q-129 -112 -158 -280q-7 -41 -7 -82
q0 -65 17 -127t48 -114.5t75.5 -97t97 -75.5t114.5 -48t127 -17q56 0 110 12.5t101 36t88.5 56.5t74.5 74.5t56.5 88.5t36 101t12.5 110q0 97 -38 186t-102 153t-153 102t-186 38zM523 33q-2 0 -3 1h-4q-1 1 -2.5 2t-2.5 2l-241 241q-12 12 0 23.5t23 -0.5l241 -241
q5 -5 5 -11.5t-5 -11.5t-11 -5zM523 33q-7 1 -12 5q-5 5 -5 11.5t5 11.5l241 241q3 3 7.5 4.5t8.5 0t7 -4.5q12 -11 0 -23l-241 -241q-5 -4 -11 -5zM522.5 33q-2.5 0 -5 1t-4.5 2.5t-3.5 3.5t-2.5 4.5t-1 5.5v538q0 4 2.5 8t6 6t8.5 2q2 0 4 -0.5t4 -1.5t3.5 -2.5t2.5 -3.5
t1.5 -4t0.5 -4v-538q0 -3 -1 -5.5t-2.5 -4.5t-3.5 -3.5t-4.5 -2.5t-5 -1z" />
    <glyph glyph-name="uniE609" unicode="&#xe609;" 
d="M291 461l74 71l156 -159l161 159l71 -73l-161 -158l162 -164l-71 -69l-163 164l-162 -161l-72 72l166 159z" />
    <glyph glyph-name="uniE60A" unicode="&#xe60a;" 
d="M511.5 473q-73.5 0 -125 -51.5t-51.5 -123.5t51.5 -123.5t125 -51.5t125 51.5t51.5 123.5t-51.5 123.5t-125 51.5zM511.5 173q-52.5 0 -89.5 36.5t-37 88.5t37 88.5t89.5 36.5t89.5 -36.5t37 -88.5t-37 -88.5t-89.5 -36.5zM891 298q0 68 46 118l10 11l-4 14
q-30 86 -91 154l-10 11l-14 -3q-68 -15 -127 19t-80 99l-5 14l-14 3q-45 9 -90.5 9t-90.5 -9l-14 -3l-5 -14q-20 -65 -79.5 -99t-126.5 -19l-15 3l-10 -11q-61 -68 -90 -154l-5 -14l10 -11q47 -50 47 -118t-47 -118l-10 -11l5 -14q29 -85 90 -154l10 -11l15 3q67 15 126 -19
q60 -34 80 -99l5 -14l14 -3q45 -9 91 -9q22 0 45 2.5t45 6.5l14 3l5 14q21 65 80 99t127 19l14 -3l10 11q61 68 91 154l4 14l-10 11q-22 24 -34 54.5t-12 63.5zM890 158q-24 -62 -67 -113q-79 11 -147 -28q-69 -39 -98 -113q-66 -10 -133 0q-29 74 -98 113q-68 39 -147 28
q-43 51 -67 113q24 30 37 66t13 74q0 25 -5.5 50t-17 47.5t-27.5 42.5q24 62 67 113q79 -11 147 28q69 39 98 113q67 10 133 0q29 -74 98 -113q68 -39 147 -28q15 -17 27 -35t22 -37.5t18 -40.5q-50 -62 -50 -140t50 -140z" />
    <glyph glyph-name="uniE60B" unicode="&#xe60b;" 
d="M621 736q-86 -2 -170 -25.5t-157 -65.5t-133.5 -101t-98.5 -131t-53 -155.5t4 -174.5q6 -32 15 -54.5t18.5 -34.5t21 -16.5t23 -1t23.5 11.5t23 21.5t21 29.5t19 34t15 36q16 37 43.5 55.5t52 15.5t40.5 -30.5t11 -72.5q-28 -256 115 -281q109 -19 280 95q89 59 162 135
q67 66 99 147.5t29.5 159t-33.5 151.5t-83.5 129.5t-127.5 89t-159 33.5zM192 262q-46 -19 -81 15q-15 16 -21 37q-5 29 13 57.5t51 38.5q23 5 43.5 2t36.5 -17.5t22 -36.5q5 -29 -13 -57.5t-51 -38.5zM346 416q-38 19 -52.5 57t0.5 71q14 37 52.5 49t75.5 -4
q38 -19 52.5 -57.5t-0.5 -77.5q-13 -22 -33.5 -35t-44.5 -14.5t-50 11.5zM608 -45q-38 -19 -79 -7t-55 46q-15 33 5 74t59 60q26 12 52.5 11.5t49.5 -14t32 -35.5q15 -35 -3.5 -75.5t-60.5 -59.5zM621 525q-28 0 -46 20.5t-18 49.5q0 28 19.5 49.5t44.5 21.5q28 0 46 -20.5
t18 -50.5q2 -14 -2 -27t-13 -22.5t-22 -15t-27 -5.5zM877 390q-29 -9 -58 8t-38 50q-14 39 -3.5 72t35.5 43q20 6 39 1t35 -20.5t22 -37.5q13 -35 3 -68t-35 -48z" />
    <glyph glyph-name="uniE60C" unicode="&#xe60c;" 
d="M850 767h-676q-53 0 -91.5 -38t-38.5 -91v-676q0 -53 38.5 -91t91.5 -38h676q53 0 91 38t38 91v676q0 66 -54 105q-34 24 -75 24zM397 17l-248 225l59 64l181 -164l391 420l66 -54z" />
    <glyph glyph-name="uniE60D" unicode="&#xe60d;" 
d="M510 831q-89 0 -169.5 -34.5t-139.5 -93t-95.5 -138.5t-39.5 -169q5 103 53.5 189t130 137t177.5 51q98 0 181 -52t131.5 -141.5t48.5 -195.5q0 -34 25 -58.5t62 -24.5q34 0 58.5 24.5t24.5 58.5q0 72 -22.5 140t-63.5 123t-95.5 96.5t-122.5 64.5t-140 23h-4zM510 -63
q52 0 101.5 11.5t93 33t82 51t68.5 67.5t52.5 80.5t35.5 91.5t15 100q-5 -103 -53.5 -189t-130 -137t-177.5 -51q-73 0 -140 31t-115 83t-77 124t-29 151q0 34 -25 58.5t-62 24.5q-34 0 -58.5 -24.5t-24.5 -58.5q0 -90 35.5 -172.5t95 -142.5t141.5 -96t172 -36z" />
    <glyph glyph-name="uniE60E" unicode="&#xe60e;" 
d="M873 244q21 60 22 123q2 1 6 2l9 3q85 28 114 48l-16 93q-32 9 -109 6h-5h-5h-5h-5q-3 0 -4.5 -0.5t-5.5 -0.5q-10 28 -24.5 53.5t-33.5 48.5q5 7 9 13t7 12q41 67 49 99l-71 61q-15 -7 -37 -24t-50 -42l-8 -7q-3 -4 -6.5 -7t-7.5 -7q-51 29 -109 40q-2 20 -4 30
q-3 25 -7 45.5t-8.5 36.5t-9.5 26h-92q-14 -30 -25 -108q-2 -10 -4 -30q-58 -11 -109 -40q-15 14 -22 21q-58 52 -87 66l-71 -61q4 -16 16.5 -41t32.5 -58q6 -10 16 -25q-37 -46 -58 -102q-21 1 -30 1q-77 3 -109 -6l-16 -93q29 -20 114 -48q3 -1 8.5 -2.5t6.5 -2.5
q1 -63 22 -123l-1 -1q-14 -12 -31.5 -26t-37.5 -30.5t-35 -29.5l46 -81q19 7 61.5 24t63.5 25h1v1q43 -52 102 -87v-1q-1 0 -1 -1q-4 -22 -13 -67.5t-13 -65.5l88 -32q9 18 31 58.5t33 60.5l1 1v1q17 -3 33.5 -4.5t32.5 -1.5t32.5 1.5t33.5 4.5v-1l1 -1q11 -20 33 -60.5
t31 -58.5l88 32q-4 20 -13 65.5t-13 67.5q0 1 -1 1v1q59 35 102 87v-1h1q21 -8 63.5 -25t61.5 -24l46 81q-17 14 -52 43t-52 43v1h-1zM512 126q-106 0 -181 75t-75 181t75 181.5t181 75.5t181 -75.5t75 -181.5t-75 -181t-181 -75z" />
    <glyph glyph-name="uniE60F" unicode="&#xe60f;" 
d="M576 556l-128 128h-448v-832h1024v704h-448zM512 -52l-224 224h160v256h128v-256h160z" />
    <glyph glyph-name="uniE610" unicode="&#xe610;" 
d="M996 -140h-968q-11 0 -19.5 8.5t-8.5 19.5q0 12 8.5 20t19.5 8h968q11 0 19.5 -8t8.5 -20q0 -5 -2.5 -10.5t-6 -9t-9 -6t-10.5 -2.5zM927 508q-5 5 -13 6.5t-15.5 0t-12.5 -6.5l-348 -346v694q0 12 -7.5 20t-18.5 8t-18.5 -8t-7.5 -20v-694l-348 346q-7 7 -20 7t-21 -7
q-3 -3 -5 -7t-2.5 -8.5t0 -9t2.5 -8.5t5 -8l395 -395q2 -2 5 -2l2 -3q12 -3 23 0l3 3q2 0 5 2l394 395q10 9 10.5 21t-7.5 20z" />
    <glyph glyph-name="uniE611" unicode="&#xe611;" 
d="M157 400l311 -311q12 -12 28 -16.5t32 0t28 16.5l311 311q18 18 18 44t-18 44t-43.5 18t-44.5 -18l-204 -205v534q0 17 -8.5 31t-23 22.5t-31.5 8.5t-31 -8.5t-22.5 -22.5t-8.5 -31v-534l-205 205q-9 9 -20 13.5t-24 4.5q-8 0 -15.5 -2t-15 -6t-13.5 -10q-8 -9 -13 -20.5
t-5 -23.5t5 -23.5t13 -20.5zM979 -42q0 -27 -19.5 -46.5t-46.5 -19.5h-801q-27 0 -46.5 19.5t-19.5 46.5t19.5 46.5t46.5 19.5h801q27 0 46.5 -19.5t19.5 -46.5v0zM979 -42z" />
    <glyph glyph-name="uniE612" unicode="&#xe612;" 
d="M771 463q-14 33 -36 62.5t-49.5 53t-60 40t-69 25.5t-75.5 9q-131 0 -223.5 -92.5t-92.5 -223.5v-2v-1q-68 -11 -113 -64t-45 -123q0 -79 55.5 -134.5t134.5 -55.5h601v2q94 12 157.5 83.5t63.5 167.5q0 68 -33 125.5t-90 92t-125 35.5zM513 52l-158 158h95v222h126v-222
h95z" />
    <glyph glyph-name="uniE613" unicode="&#xe613;" 
d="M480 396q0 13 9.5 22.5t22.5 9.5q9 0 16 -4.5t11.5 -11.5t4.5 -16v-320q0 -13 -9.5 -22.5t-22.5 -9.5t-22.5 9.5t-9.5 22.5v320zM640 396q0 13 9.5 22.5t22.5 9.5q9 0 16 -4.5t11.5 -11.5t4.5 -16v-320q0 -13 -9.5 -22.5t-22.5 -9.5t-22.5 9.5t-9.5 22.5v320zM320 396
q0 13 9.5 22.5t22.5 9.5t22.5 -9.5t9.5 -22.5v-320q0 -13 -9.5 -22.5t-22.5 -9.5t-22.5 9.5t-9.5 22.5v320zM896 556h-181l-63 109q-6 15 -22 18q-3 1 -5 1h-4h-217q-21 2 -31 -16l-65 -112h-180q-9 0 -16 -4.5t-11.5 -11.5t-4.5 -16q0 -7 2.5 -12.5t7 -10t10 -7t12.5 -2.5
h64v-578q0 -17 8.5 -32t23.5 -23.5t32 -8.5h512q27 0 45.5 18.5t18.5 45.5v578h64q13 0 22.5 9.5t9.5 22.5t-9.5 22.5t-22.5 9.5zM419 620h185l37 -64h-259zM768 -52q0 -13 -9.5 -22.5t-22.5 -9.5h-448q-4 0 -8.5 1t-8 3t-6.5 5t-5 6.5t-3 8t-1 8.5v544h512v-544z" />
    <glyph glyph-name="uniE614" unicode="&#xe614;" 
d="M934 242l-380 -170q-27 -12 -43 -12t-41 12l-380 170q-14 8 -20 29.5t-6 42.5l60 -29l388 -179l388 179l60 29q0 -21 -6.5 -43.5t-19.5 -28.5zM934 421l-380 -170q-27 -12 -43 -12t-41 12l-380 170q-23 12 -22.5 41.5t22.5 43.5l380 200q25 13 43 13.5t41 -13.5l380 -200
q22 -12 22 -43.5t-22 -41.5zM512 672l-388 -208l388 -164l388 164zM512 672zM512 -73l388 179l60 29q0 -21 -6.5 -43.5t-19.5 -28.5l-380 -171q-19 -8 -31 -10t-24 0t-29 10l-380 171q-14 8 -20 29.5t-6 42.5l60 -29z" />
    <glyph glyph-name="uniE615" unicode="&#xe615;" 
d="M0 812h301v-301h-301v301zM361 511h302v301h-302v-301zM723 812v-301h301v301h-301zM0 149h301v302h-301v-302zM361 149h302v302h-302v-302zM723 149h301v302h-301v-302zM0 -212h301v301h-301v-301zM361 -212h302v301h-302v-301zM723 -212h301v301h-301v-301z" />
    <glyph glyph-name="uniE616" unicode="&#xe616;" horiz-adv-x="1025" 
d="M1024 329h-123q-11 144 -114 246.5t-247 112.5v124h-60v-124q-143 -12 -244.5 -114t-112.5 -245h-123v-60h123q11 -143 112.5 -245.5t244.5 -113.5v-122h60v122q144 10 247 112.5t114 246.5h123v60zM540 -30v118h-60v-118q-118 11 -202 96t-95 203h117v60h-117
q11 118 95 202.5t202 96.5v-116h60v116q120 -10 205 -95t96 -204h-117v-60h117q-4 -47 -21 -91t-45 -79.5t-64 -63t-80 -44.5t-91 -21z" />
    <glyph glyph-name="uniE617" unicode="&#xe617;" 
d="M0 812zM128 300l256 256h-128l-256 -256l256 -256h128zM768 556h-128l256 -256l-256 -256h128l256 256zM544 684l-160 -768h96l160 768h-96z" />
    <glyph glyph-name="uniE618" unicode="&#xe618;" 
d="M512 728q89 0 170.5 -35t140.5 -94t94 -140.5t35 -170.5q0 -72 -22.5 -139t-63 -121t-94.5 -95t-121 -63t-139 -22q-60 0 -117 16t-105 44t-89 69t-69 89t-44 105t-16 117q0 89 35 170.5t94 140.5t140.5 94t170.5 35zM512 768q-98 0 -186.5 -38t-153 -102.5t-102.5 -153
t-38 -186.5t38 -186.5t102.5 -153t153 -102.5t186.5 -38t186.5 38t153 102.5t102.5 153t38 186.5t-38 186.5t-102.5 153t-153 102.5t-186.5 38z" />
    <glyph glyph-name="uniE619" unicode="&#xe619;" 
d="M511 832q-91 0 -173.5 -35t-142.5 -95t-95.5 -143t-35.5 -174t35.5 -173.5t95.5 -142.5t142.5 -95.5t173.5 -35.5t174 35.5t143 95.5t95.5 142.5t35.5 173.5q0 73 -23 141.5t-64 123t-96 96t-123.5 64t-141.5 22.5zM768 501l-289 -289q-10 -10 -24 -11.5t-26 5.5
q-2 1 -4 2.5t-4 3.5l-166 166q-8 8 -10.5 18.5t0 21t10.5 18.5q12 12 28.5 12t28.5 -12l138 -138l261 260q7 8 17.5 11t21 0t18.5 -11q12 -11 12 -28t-12 -29zM768 501z" />
    <glyph glyph-name="uniE61A" unicode="&#xe61a;" 
d="M374 93v93h-93v93h-93v93h-93v93h-93v93h87h935v-93h-93v-93h-93v-93h-93v-93h-93v-93h-84h-9v-93h-92v93h-93z" />
    <glyph glyph-name="uniE61B" unicode="&#xe61b;" 
d="M42 -207q-5 0 -10 1t-9.5 3.5t-8.5 6.5q-8 8 -10.5 18t0 20t10.5 18l942 940q6 6 13.5 9t15 3t14.5 -3t13 -9q12 -11 12 -27.5t-12 -27.5l-942 -941q-12 -11 -28 -11zM362 -212q-17 0 -28 12q-8 7 -11 17.5t0 21t11 17.5l621 622q8 8 18.5 10.5t20.5 0t18 -10.5
q12 -11 12 -28t-12 -28l-622 -622q-12 -12 -28 -12zM680 -210q-16 0 -27 11q-7 7 -9.5 17t0 20t9.5 18l304 303q8 8 17.5 10.5t19.5 0t18 -10.5q11 -11 11 -27t-11 -27l-304 -304q-3 -2 -5.5 -4t-5 -3.5t-5.5 -2.5t-6 -1h-6z" />
  </font>
</defs>
</svg>
